# xmcd CD database file
#
# Track frame offsets:
#	150
#	20969
#	43995
#	59424
#	78009
#	95377
#	109157
#	128266
#	149609
#	168459
#
# Disc length: 2551 seconds
#
# Revision: 1
# Processed by: cddbd v1.5.2PL0 Copyright (c) Steve Scherf et al.
# Submitted via: CDex 1.70beta2
#
DISCID=8609f50a
DTITLE=Cincin 李欣芸 - Fantasia Of Tuscany 托斯卡尼 我想起你
DYEAR=2007
DGENRE=New Age
TTITLE0=Fantasia of Tuscany 托斯卡尼 我想起你
TTITLE1=Odense 愛笑的房子
TTITLE2=Caramel Waltz 焦糖圓舞曲
TTITLE3=Jazz-holic 爵士哈力克
TTITLE4=Gaze of Angel 天使的凝望
TTITLE5=Norwegian Lakes and Woods 玻璃湖森林
TTITLE6=Cinque Terre 五個迷路的小村
TTITLE7=Dolce River Goes Through the City 流過城市一條溫柔的河
TTITLE8=Fly 移動的城堡
TTITLE9=Not Enough Miles for Redemption 哩程數未滿
EXTD=YEAR: 2007
EXTT0=
EXTT1=
EXTT2=
EXTT3=
EXTT4=
EXTT5=
EXTT6=
EXTT7=
EXTT8=
EXTT9=
PLAYORDER=
